<svg width="86" height="85" viewBox="0 0 86 85" fill="#f60103" xmlns="http://www.w3.org/2000/svg">
    <path d="M85 32.1332C81.1716 16.2924 68.6641 3.82877 52.8362 0C52.8362 0 46.1457 10.3111 42.4907 10.3111C38.8419 10.3111 32.1948 0 32.1948 0C16.3173 3.82877 3.83463 16.2924 0 32.1332C0 32.1332 10.3207 38.7949 10.3207 42.432C10.3207 46.0875 0 52.7492 0 52.7492C3.88419 68.7633 16.5961 81.332 32.709 85C32.709 85 39.4738 74.5714 43.166 74.5714C46.7466 74.5714 53.3751 84.7402 53.3751 84.7402C68.9738 80.763 81.1963 68.3922 85.0062 52.743C85.0062 52.743 74.6917 46.0814 74.6917 42.432C74.6855 38.7949 85 32.1332 85 32.1332Z"/>
</svg>
