<svg width="138" height="90" viewBox="0 0 138 90" fill="black" xmlns="http://www.w3.org/2000/svg">
<path d="M69.6126 11.3263C70.4202 15.325 67.8496 19.2252 63.8411 20.0525C59.8424 20.8798 55.9324 18.3093 55.0952 14.3204L0 25.6763L13.2567 90L68.2928 78.654C67.4655 74.6454 70.046 70.7255 74.0545 69.8982C78.063 69.0709 81.9829 71.6514 82.8102 75.6599L137.846 64.3139L124.59 0L69.6126 11.3263Z" fill="#fcbb00"/>
<path d="M31.2321 49.4518L29.4395 49.8162L28.4251 44.8819L24.8007 45.6304L25.8151 50.5647L24.0226 50.9292L21.6982 39.6619L23.4908 39.2975L24.4658 44.0349L28.0902 43.2863L27.1152 38.549L28.9077 38.1846L31.2321 49.4518Z"   />
<path d="M42.6578 47.0979L35.4581 48.5752L33.1338 37.308L40.3334 35.8208L40.6683 37.4262L35.2513 38.5391L35.8915 41.6612L40.1167 40.7945L40.4516 42.3999L36.2264 43.2666L36.9158 46.5956L42.3327 45.4827L42.6578 47.0979Z"   />
<path d="M47.3055 46.1327L45.1288 46.5857L44.6758 44.4091L46.8524 43.9561L47.3055 46.1327Z"   />
<path d="M56.1794 32.5605L54.6922 42.902C54.574 43.6505 54.2983 44.202 53.8551 44.5763C53.4119 44.9506 52.8505 45.1968 52.1709 45.3445C51.9345 45.3938 51.6784 45.4233 51.3928 45.4233C51.1072 45.4332 50.8117 45.4135 50.4966 45.3642L50.5261 43.6407C50.792 43.6899 51.0383 43.7096 51.2451 43.6997C51.4618 43.6899 51.6489 43.6702 51.8065 43.6407C52.3383 43.5323 52.6535 43.2171 52.752 42.6853L52.9096 41.8383L48.1328 34.2053L49.9943 33.8212L53.4611 39.4548L54.249 32.9447L56.1794 32.5605Z"   />
<path d="M69.4655 37.9875C69.4359 38.5686 69.3571 39.1103 69.2192 39.6027C69.0814 40.0952 68.8745 40.5384 68.6086 40.9225C68.3427 41.3066 68.0078 41.6316 67.604 41.8877C67.2002 42.1536 66.7078 42.3407 66.1464 42.4589C65.3584 42.6264 64.6592 42.5968 64.0387 42.3801C63.428 42.1635 62.8864 41.8286 62.4234 41.3558C61.9605 40.8831 61.5764 40.3118 61.281 39.6421C60.9855 38.9724 60.759 38.2633 60.6014 37.5049C60.4438 36.7465 60.3749 36.0078 60.3847 35.2692C60.3946 34.5305 60.5127 33.8608 60.7491 33.26C60.9855 32.6493 61.3302 32.1372 61.7931 31.694C62.256 31.2606 62.8667 30.9652 63.6349 30.8076C63.8811 30.7583 64.1372 30.7386 64.4031 30.7485C64.669 30.7583 64.9251 30.8076 65.1713 30.8962C65.4175 30.9849 65.6441 31.1031 65.841 31.2606C66.0479 31.4182 66.2055 31.6152 66.3236 31.8417L66.0479 30.5121L67.6533 30.1772L68.5298 34.4419L66.9244 34.7767C66.8555 34.4222 66.7373 34.0873 66.5797 33.7623C66.4221 33.4373 66.2252 33.1615 65.9789 32.935C65.7327 32.7084 65.4471 32.541 65.1319 32.4327C64.8069 32.3243 64.4523 32.3145 64.0584 32.3933C63.5561 32.5016 63.1621 32.7084 62.8863 33.0236C62.6106 33.3388 62.4234 33.713 62.3151 34.1562C62.2068 34.5994 62.1575 35.082 62.1871 35.5942C62.2166 36.1162 62.2757 36.6283 62.3841 37.1306C62.4924 37.6428 62.6303 38.1352 62.8174 38.6277C62.9947 39.1201 63.2311 39.5436 63.497 39.908C63.7728 40.2725 64.0978 40.5384 64.472 40.7157C64.8561 40.8929 65.2895 40.9323 65.8016 40.8338C66.5305 40.6861 67.0426 40.3315 67.3479 39.7899C67.6434 39.2383 67.8305 38.5489 67.9093 37.7117L69.4655 37.9875Z"   />
<path d="M78.675 27.9219L80.9993 39.1891L79.2068 39.5535L77.2173 29.8917L74.174 30.522L75.6711 37.8004C75.7695 38.2633 75.7794 38.677 75.7104 39.0414C75.6415 39.4058 75.5135 39.7013 75.3263 39.9573C75.1392 40.2036 74.9028 40.4104 74.6172 40.568C74.3316 40.7255 74.0066 40.8437 73.6619 40.9127C73.1793 41.0112 72.805 41.0112 72.5588 40.9127L72.4701 39.327C72.5686 39.3565 72.6671 39.3762 72.7754 39.3762C72.8838 39.3762 73.0118 39.3664 73.1793 39.327C73.7997 39.199 74.0361 38.8148 73.9081 38.1648L72.0762 29.2712L78.675 27.9219Z"   />
<path d="M83.3527 32.8267C83.1951 32.0683 83.1262 31.3296 83.1459 30.5909C83.1656 29.8523 83.2837 29.1825 83.5103 28.5817C83.7368 27.981 84.0914 27.459 84.574 27.0158C85.0566 26.5726 85.6869 26.2771 86.465 26.1195C87.243 25.9619 87.9423 25.9816 88.553 26.1983C89.1734 26.415 89.7053 26.7498 90.1583 27.2127C90.6114 27.6756 90.9955 28.2469 91.291 28.9166C91.5864 29.5863 91.8228 30.2955 91.9705 31.0538C92.1281 31.8122 92.1971 32.5509 92.1872 33.2797C92.1774 34.0085 92.0592 34.6881 91.8327 35.2988C91.6061 35.9094 91.2516 36.4412 90.769 36.8746C90.2864 37.3178 89.6462 37.6133 88.8583 37.7807C88.0704 37.9481 87.3711 37.9186 86.7506 37.7019C86.1301 37.4852 85.5983 37.1504 85.1452 36.6776C84.6922 36.2049 84.3179 35.6336 84.0224 34.9639C83.727 34.2942 83.5004 33.585 83.3527 32.8267ZM85.1354 32.4622C85.2437 32.9744 85.3816 33.4668 85.5687 33.9593C85.7558 34.4517 85.9725 34.8752 86.2483 35.2397C86.5142 35.6041 86.8392 35.87 87.2135 36.0571C87.5878 36.2344 88.031 36.2738 88.5333 36.1753C89.0356 36.067 89.4295 35.8601 89.7053 35.545C89.9811 35.2298 90.1682 34.8555 90.2765 34.4123C90.3849 33.9691 90.4243 33.4964 90.3947 32.9645C90.3652 32.4425 90.3061 31.9304 90.1977 31.4183C90.0894 30.916 89.9515 30.4137 89.7644 29.9311C89.5871 29.4485 89.3606 29.025 89.0848 28.6605C88.8189 28.2961 88.484 28.0204 88.1097 27.8431C87.7256 27.6658 87.2923 27.6264 86.79 27.7249C85.9627 27.8923 85.4111 28.3946 85.1354 29.2318C84.8596 30.0689 84.8596 31.1425 85.1354 32.4622Z"   />
<path d="M99.3471 35.4073L98.4213 30.9358L98.0175 30.4828L97.0129 35.8899L95.2794 36.2444L96.8159 29.2911L92.9551 24.9772L94.7476 24.6128L97.9485 28.6213L97.0227 24.1401L98.8152 23.7756L99.741 28.2569L101.11 23.3029L102.893 22.9385L101.061 28.4342L105.217 34.2156L103.493 34.5701L100.43 30.0002L100.233 30.5813L101.159 35.0527L99.3471 35.4073Z"   />
<path d="M105.552 29.0649L105.217 27.4596L111.166 26.2383L111.5 27.8437L105.552 29.0649Z"   />
<path d="M34.9049 67.2682L33.1124 67.6326L32.0979 62.6983L28.4735 63.4468L29.488 68.3811L27.6955 68.7456L25.3711 57.4783L27.1636 57.1139L28.1387 61.8513L31.7631 61.1027L30.788 56.3654L32.5806 56.001L34.9049 67.2682Z"   />
<path d="M40.8048 61.2017C40.3616 61.2313 39.9381 61.2116 39.5343 61.1229C39.1305 61.0441 38.7562 60.8964 38.4214 60.6797C38.0865 60.463 37.8009 60.1873 37.5744 59.8426C37.3478 59.4978 37.1804 59.0743 37.0721 58.5819C36.8455 57.469 37.013 56.5628 37.5842 55.8537C38.1555 55.1446 39.0517 54.662 40.2927 54.4059L44.0058 53.6377L46.3301 64.9049L44.5376 65.2693L43.6019 60.7093L42.7943 60.8767L40.8147 66.0376L38.5494 66.5005L40.8048 61.2017ZM38.8547 58.1781C38.9729 58.769 39.2585 59.1728 39.6919 59.3797C40.1253 59.5865 40.6768 59.6259 41.3367 59.488L43.2671 59.094L42.5481 55.6173L40.6177 56.0113C39.9578 56.1492 39.4654 56.3954 39.1502 56.7598C38.835 57.1341 38.7365 57.6068 38.8547 58.1781Z"   />
<path d="M48.2314 52.7813L50.024 52.4169L51.6195 60.1779L53.1855 51.757L55.431 51.2941L57.7554 62.5613L55.9629 62.9257L54.2787 54.7511L52.6241 63.6053L50.5558 64.0288L48.2314 52.7813ZM54.259 49.4326C53.6385 50.3683 52.7718 50.9592 51.6687 51.1857C50.5558 51.4123 49.5315 51.2251 48.5959 50.6046L49.433 49.3637C50.0831 49.797 50.7331 49.9448 51.393 49.8069C52.043 49.669 52.5847 49.275 53.0181 48.625L54.259 49.4326Z"   />
<path d="M67.191 51.9443L66.3144 52.1216L65.034 51.0973L64.7878 51.4715L64.975 52.3974L64.2954 52.5352L63.665 49.4722L64.3446 49.3343L64.6105 50.6344L65.5659 49.0881L66.5015 48.8911L65.3788 50.5851L67.191 51.9443Z"   />
<path d="M68.9637 50.6637C68.9243 50.4864 68.944 50.319 69.0129 50.1614C69.0819 50.0038 69.1803 49.8659 69.3182 49.7477C69.4561 49.6295 69.6235 49.5212 69.8107 49.4326C70.0077 49.3439 70.2046 49.2848 70.4115 49.2356C70.5297 49.2159 70.6281 49.1962 70.7168 49.1765C70.8054 49.1666 70.8842 49.1568 70.9729 49.1469L70.9433 49.0288C70.9138 48.8712 70.8251 48.7628 70.6872 48.7136C70.5493 48.6643 70.3721 48.6545 70.1751 48.6939C69.988 48.7333 69.8107 48.7924 69.6334 48.8909C69.4561 48.9795 69.2887 49.0977 69.1409 49.2257L68.7568 48.753C68.9341 48.5954 69.1311 48.4575 69.3478 48.3492C69.5645 48.231 69.8008 48.1522 70.0569 48.103C70.2243 48.0734 70.3918 48.0537 70.5592 48.0537C70.7266 48.0537 70.8842 48.0931 71.032 48.1522C71.1797 48.2113 71.3077 48.2999 71.4062 48.4181C71.5146 48.5363 71.5835 48.7037 71.6229 48.9007L72.0464 50.9592L71.3767 51.097L71.288 50.644C71.2191 50.8311 71.0812 50.9986 70.8941 51.1364C70.7069 51.2743 70.4903 51.363 70.244 51.4122C70.0963 51.4418 69.9486 51.4516 69.8107 51.4418C69.6728 51.4319 69.5448 51.3925 69.4266 51.3334C69.3182 51.2743 69.2197 51.1857 69.1311 51.0773C69.0523 50.9493 68.9932 50.8213 68.9637 50.6637ZM70.2933 50.7523C70.4312 50.7228 70.5494 50.6834 70.6577 50.6243C70.766 50.5652 70.8645 50.4963 70.9433 50.4175C71.0221 50.3387 71.0713 50.25 71.1107 50.1515C71.1403 50.0531 71.1501 49.9546 71.1304 49.8561L71.1107 49.7379C71.0024 49.7379 70.8941 49.7576 70.8054 49.7674C70.7069 49.7871 70.6281 49.797 70.5592 49.8167C70.2243 49.8856 69.988 49.9841 69.8304 50.1023C69.6826 50.2205 69.6137 50.3485 69.6432 50.4766C69.6826 50.7425 69.8993 50.8311 70.2933 50.7523Z"   />
<path d="M76.4488 46.8423L77.0792 49.9053L76.3996 50.0432L75.8973 47.5908L74.745 47.8272L75.0601 49.3735C75.0995 49.5508 75.0995 49.7083 75.0798 49.8462C75.0503 49.9841 75.001 50.1023 74.9321 50.1909C74.8632 50.2894 74.7745 50.3584 74.6662 50.4273C74.5578 50.4864 74.4298 50.5357 74.3018 50.5554C74.1146 50.5947 73.9768 50.5947 73.8783 50.5554L73.8389 49.9546C73.8783 49.9644 73.9177 49.9743 73.9571 49.9743C73.9964 49.9743 74.0457 49.9743 74.1048 49.9546C74.3412 49.9053 74.4298 49.7576 74.3806 49.5114L73.9374 47.3544L76.4488 46.8423Z"   />
<path d="M82.0624 47.8963C82.1313 48.2115 82.0722 48.4577 81.9146 48.6645C81.7472 48.8615 81.4911 48.9994 81.1365 49.0782L79.3637 49.4426L78.7334 46.3796L79.413 46.2417L79.6592 47.4236L80.7623 47.197C81.1168 47.1281 81.4025 47.1478 81.629 47.2561C81.8555 47.3743 81.9934 47.5812 82.0624 47.8963ZM81.3828 48.0441C81.3631 47.9357 81.304 47.8569 81.2153 47.8175C81.1267 47.7781 81.0184 47.7781 80.8805 47.7978L79.7774 48.0342L79.9153 48.6842L81.0184 48.4577C81.1562 48.4282 81.2547 48.3789 81.3237 48.31C81.3828 48.241 81.4025 48.1524 81.3828 48.0441Z"   />
<path d="M85.0663 47.0298C84.7216 47.0988 84.436 47.0692 84.2095 46.9609C83.983 46.8427 83.8451 46.6359 83.7761 46.3207C83.717 46.0154 83.7663 45.7593 83.9239 45.5525C84.0913 45.3555 84.3474 45.2176 84.7019 45.1388L86.4748 44.7744L87.1051 47.8374L86.4255 47.9753L86.1793 46.7935L85.9035 46.8526L85.0762 48.261L84.1701 48.4481L85.0663 47.0298ZM84.4557 46.173C84.4754 46.2813 84.5345 46.3601 84.6231 46.3995C84.7118 46.4389 84.8201 46.4389 84.958 46.4192L86.0611 46.1927L85.9232 45.5328L84.8201 45.7593C84.6822 45.7889 84.5837 45.8381 84.5148 45.907C84.4557 45.976 84.436 46.0646 84.4557 46.173Z"   />
<path d="M92.1389 46.8033L91.4593 46.9412L91.2032 45.6805L89.8243 45.9661L90.0804 47.2268L89.4008 47.3647L88.7705 44.3016L89.4501 44.1637L89.6963 45.3456L91.0752 45.06L90.8289 43.8781L91.5085 43.7402L92.1389 46.8033Z"   />
<path d="M97.1516 45.7691L96.472 45.907L96.2159 44.6463L94.837 44.9319L95.0931 46.1926L94.4135 46.3305L93.7832 43.2674L94.4628 43.1296L94.709 44.3114L96.0879 44.0258L95.8416 42.8439L96.5212 42.7061L97.1516 45.7691Z"   />
<path d="M99.0721 44.4591C99.0327 44.2818 99.0524 44.1144 99.1213 43.9568C99.1903 43.7992 99.2887 43.6613 99.4266 43.5431C99.5645 43.425 99.7319 43.3166 99.9191 43.228C100.116 43.1393 100.313 43.0802 100.52 43.031C100.638 43.0113 100.737 42.9916 100.825 42.9719C100.914 42.9621 100.993 42.9522 101.081 42.9424L101.052 42.8242C101.022 42.6666 100.934 42.5582 100.796 42.509C100.658 42.4598 100.48 42.4499 100.283 42.4893C100.096 42.5287 99.9191 42.5878 99.7418 42.6863C99.5645 42.7749 99.3971 42.8931 99.2493 43.0211L98.8652 42.5484C99.0425 42.3908 99.2395 42.2529 99.4562 42.1446C99.6729 42.0264 99.9092 41.9476 100.165 41.8984C100.333 41.8688 100.5 41.8491 100.668 41.8491C100.835 41.8491 100.993 41.8885 101.14 41.9476C101.288 42.0067 101.416 42.0953 101.515 42.2135C101.623 42.3317 101.692 42.4992 101.731 42.6961L102.155 44.7447L101.485 44.8826L101.396 44.4296C101.327 44.6167 101.19 44.7841 101.002 44.922C100.815 45.0599 100.599 45.1485 100.352 45.1978C100.205 45.2273 100.057 45.2372 99.9191 45.2273C99.7812 45.2175 99.6532 45.1781 99.535 45.119C99.4266 45.0599 99.3281 44.9712 99.2395 44.8629C99.1607 44.7447 99.1115 44.6167 99.0721 44.4591ZM100.402 44.5477C100.54 44.5182 100.658 44.4788 100.766 44.4197C100.874 44.3606 100.973 44.2917 101.052 44.2129C101.131 44.1341 101.18 44.0454 101.219 43.947C101.249 43.8485 101.259 43.75 101.239 43.6515L101.219 43.5333C101.111 43.5333 101.002 43.553 100.914 43.5628C100.815 43.5825 100.737 43.5924 100.668 43.6121C100.333 43.681 100.096 43.7795 99.9388 43.8977C99.791 44.0159 99.7221 44.1439 99.7516 44.272C99.791 44.5379 100.018 44.6265 100.402 44.5477Z"   />
<path d="M105.139 42.8931C104.794 42.9621 104.508 42.9325 104.282 42.8242C104.055 42.706 103.917 42.4992 103.848 42.184C103.789 41.8787 103.839 41.6226 103.996 41.4158C104.164 41.2188 104.42 41.0809 104.774 41.0021L106.547 40.6377L107.177 43.7007L106.498 43.8386L106.252 42.6567L105.976 42.7158L105.139 44.1242L104.233 44.3114L105.139 42.8931ZM104.528 42.0363C104.548 42.1446 104.607 42.2234 104.695 42.2628C104.784 42.3022 104.892 42.3022 105.03 42.2825L106.133 42.056L105.995 41.3961L104.892 41.6226C104.754 41.6521 104.656 41.7014 104.587 41.7703C104.528 41.8393 104.508 41.9279 104.528 42.0363Z"   />
<path d="M67.7516 55.4111L68.3819 58.4742L67.7023 58.6121L67.2 56.1597L66.0477 56.396L66.3629 57.9423C66.4023 58.1196 66.4023 58.2772 66.3826 58.4151C66.353 58.553 66.3038 58.6711 66.2348 58.7598C66.1659 58.8583 66.0773 58.9272 65.9689 58.9962C65.8606 59.0553 65.7325 59.1045 65.6045 59.1242C65.4174 59.1636 65.2795 59.1636 65.181 59.1242L65.1416 58.5234C65.181 58.5333 65.2204 58.5431 65.2598 58.5431C65.2992 58.5431 65.3484 58.5431 65.4075 58.5234C65.6439 58.4742 65.7325 58.3264 65.6833 58.0802L65.2401 55.9233L67.7516 55.4111Z"   />
<path d="M70.3034 57.1642C70.264 56.9869 70.2837 56.8195 70.3527 56.6619C70.4216 56.5043 70.5201 56.3664 70.658 56.2482C70.7959 56.13 70.9633 56.0217 71.1504 55.9331C71.3474 55.8444 71.5444 55.7853 71.7512 55.7361C71.8694 55.7164 71.9679 55.6967 72.0565 55.677C72.1452 55.6671 72.224 55.6573 72.3126 55.6474L72.2831 55.5293C72.2535 55.3717 72.1649 55.2633 72.027 55.2141C71.899 55.155 71.7217 55.155 71.5247 55.1944C71.3376 55.2338 71.1603 55.2929 70.983 55.3914C70.8057 55.48 70.6383 55.5982 70.4906 55.7262L70.1064 55.2535C70.2837 55.0959 70.4807 54.958 70.6974 54.8497C70.9141 54.7315 71.1504 54.6527 71.4065 54.6034C71.5739 54.5739 71.7414 54.5542 71.9088 54.5542C72.0762 54.5542 72.2338 54.5936 72.3816 54.6527C72.5293 54.7118 72.6573 54.8004 72.7558 54.9186C72.8642 55.0368 72.9331 55.2042 72.9725 55.4012L73.396 57.4498L72.7263 57.5877L72.6376 57.1346C72.5687 57.3218 72.4308 57.4892 72.2437 57.6271C72.0565 57.765 71.8399 57.8536 71.5936 57.9029C71.4459 57.9324 71.2982 57.9422 71.1603 57.9324C71.0224 57.9226 70.8944 57.8832 70.7762 57.8241C70.6678 57.765 70.5693 57.6763 70.4807 57.568C70.3921 57.4498 70.333 57.3218 70.3034 57.1642ZM71.633 57.2528C71.7709 57.2233 71.8891 57.1839 71.9974 57.1248C72.1058 57.0657 72.2043 56.9967 72.2831 56.918C72.3619 56.8392 72.4111 56.7505 72.4505 56.652C72.48 56.5535 72.4899 56.4551 72.4702 56.3566L72.4505 56.2384C72.3422 56.2384 72.2338 56.2581 72.1452 56.2679C72.0467 56.2876 71.9679 56.2975 71.899 56.3172C71.5641 56.3861 71.3277 56.4846 71.1701 56.6028C71.0224 56.721 70.9535 56.849 70.983 56.977C71.0224 57.243 71.2391 57.3316 71.633 57.2528Z"   />
<path d="M78.3985 55.5391C78.4576 55.8149 78.3985 56.0512 78.2212 56.2285C78.0439 56.4058 77.7681 56.5437 77.384 56.6225L75.6801 56.977L75.0498 53.914L76.6355 53.589C76.7734 53.5595 76.9211 53.5398 77.059 53.5299C77.2067 53.5201 77.3348 53.5398 77.453 53.5693C77.5711 53.6087 77.6795 53.6678 77.7681 53.7564C77.8568 53.8451 77.9159 53.9731 77.9553 54.1405C77.9848 54.2981 77.9651 54.4459 77.8962 54.5837C77.8272 54.7216 77.6992 54.8497 77.5022 54.9482C77.7583 54.9285 77.9651 54.9777 78.1128 55.0762C78.2606 55.1845 78.3591 55.3323 78.3985 55.5391ZM77.2954 54.3671C77.2855 54.2981 77.256 54.2489 77.2166 54.2193C77.1772 54.1799 77.1378 54.1602 77.0885 54.1504C77.0393 54.1405 76.9802 54.1307 76.9211 54.1405C76.862 54.1504 76.8029 54.1504 76.7438 54.1701L75.8279 54.3572L75.9559 54.9679L76.8719 54.7807C76.931 54.7709 76.9901 54.7512 77.0393 54.7315C77.0984 54.7118 77.1476 54.6822 77.187 54.6527C77.2264 54.6231 77.256 54.5837 77.2757 54.5345C77.3052 54.4853 77.3151 54.4262 77.2954 54.3671ZM77.6992 55.5686C77.6795 55.4603 77.6204 55.3914 77.5121 55.352C77.4136 55.3126 77.2757 55.3126 77.1181 55.352L76.0938 55.5686L76.2317 56.2187L77.256 56.002C77.4136 55.9725 77.5416 55.9134 77.6204 55.8444C77.6992 55.7755 77.7287 55.6868 77.6992 55.5686Z"   />
<path d="M83.5894 55.3422L82.7129 55.5195L81.4325 54.4952L81.1863 54.8695L81.3734 55.7953L80.6938 55.9332L80.0635 52.8702L80.7431 52.7323L81.009 54.0323L81.9643 52.486L82.9 52.2891L81.7772 53.9831L83.5894 55.3422Z"   />
<path d="M85.3621 54.0616C85.3227 53.8844 85.3424 53.7169 85.4113 53.5593C85.4803 53.4018 85.5788 53.2639 85.7167 53.1457C85.8546 53.0275 86.022 52.9192 86.2091 52.8305C86.4061 52.7419 86.6031 52.6828 86.8099 52.6335C86.9281 52.6138 87.0266 52.5941 87.1152 52.5744C87.2039 52.5646 87.2827 52.5547 87.3713 52.5449L87.3417 52.4267C87.3122 52.2691 87.2236 52.1608 87.0857 52.1115C86.9478 52.0623 86.7705 52.0524 86.5735 52.0918C86.3864 52.1312 86.2091 52.1903 86.0318 52.2888C85.8546 52.3775 85.6871 52.4957 85.5394 52.6237L85.1553 52.1509C85.3326 51.9934 85.5295 51.8555 85.7462 51.7471C85.9629 51.6289 86.1993 51.5501 86.4553 51.5009C86.6228 51.4714 86.7902 51.4517 86.9576 51.4517C87.1251 51.4517 87.2827 51.4911 87.4304 51.5501C87.5781 51.6092 87.7062 51.6979 87.8047 51.8161C87.913 51.9343 87.9819 52.1017 88.0213 52.2987L88.4448 54.3473L87.7751 54.4851L87.6865 54.0321C87.6175 54.2192 87.4796 54.3867 87.2925 54.5245C87.1054 54.6624 86.8887 54.7511 86.6425 54.8003C86.4947 54.8299 86.347 54.8397 86.2091 54.8299C86.0712 54.82 85.9432 54.7806 85.825 54.7215C85.7167 54.6624 85.6182 54.5738 85.5295 54.4654C85.4507 54.3473 85.3916 54.2192 85.3621 54.0616ZM86.6917 54.1503C86.8296 54.1207 86.9478 54.0813 87.0561 54.0222C87.1645 53.9631 87.263 53.8942 87.3417 53.8154C87.4205 53.7366 87.4698 53.648 87.5092 53.5495C87.5387 53.451 87.5486 53.3525 87.5289 53.254L87.5092 53.1358C87.4008 53.1358 87.2925 53.1555 87.2039 53.1654C87.1054 53.1851 87.0266 53.1949 86.9576 53.2146C86.6228 53.2836 86.3864 53.3821 86.2288 53.5002C86.0811 53.6184 86.0121 53.7465 86.0417 53.8745C86.0811 54.1404 86.2978 54.2291 86.6917 54.1503Z"   />
</svg>
