<svg width="142" height="46" viewBox="0 0 142 46" fill="#F29200" xmlns="http://www.w3.org/2000/svg">
<path d="M10.9531 40.4754C10.8891 39.4115 10.8722 38.3914 10.8554 37.3241L10.8722 36.8141C10.8688 36.0271 10.8722 35.284 10.9194 34.5376C10.9396 34.1187 10.9834 33.3284 11.0104 32.2577L11.1182 31.0451C11.1216 30.3493 11.1755 29.694 11.2699 28.9949C11.3305 28.4815 11.3912 27.9647 11.408 27.4547C11.4249 26.9446 11.526 26.3333 11.6608 25.5362C11.7282 25.114 11.7956 24.6918 11.8158 24.2729L12.2168 21.7431L13.0998 17.234C13.2076 16.7172 13.3121 16.1531 13.5076 15.5857C13.6592 15.0655 13.7671 14.5015 13.8715 13.9408C13.9457 13.6131 14.0131 13.2348 14.131 12.9038C14.2052 12.5762 14.2726 12.1979 14.34 11.7791C14.4074 11.3569 14.5219 10.9786 14.6399 10.6003C14.8354 10.0329 15.0342 9.46203 15.1353 8.85406C15.4049 7.95561 15.5565 7.38817 15.5431 7.20577C15.6206 6.96934 15.6543 6.73628 15.6442 6.5978C15.6138 6.08778 15.26 5.6014 14.5893 5.22311C14.1108 4.97316 13.6424 4.8617 13.2279 4.88872L12.9987 4.94952C12.8167 5.00694 12.6044 5.29741 12.4022 5.82095L11.4417 8.29337L11.2463 8.86081L10.825 10.2794L10.0297 13.2044C9.99264 13.3463 9.99938 13.4375 9.95894 13.5355C9.92187 13.6773 9.73652 14.4305 9.45344 15.8863L9.12317 17.2981L8.93782 18.7944C8.82324 19.1727 8.72551 19.8753 8.60756 20.9494L8.40873 22.2599C8.26045 22.8712 8.16272 23.5265 8.15261 24.1311C8.11217 24.2257 8.02455 24.3236 7.88975 24.3776L6.65969 24.7323L4.84662 25.3538C4.75563 25.4044 4.66464 25.4112 4.52984 25.4652C4.39504 25.5193 4.30068 25.526 4.16588 25.5801C4.03108 25.6341 3.93672 25.6409 3.84573 25.6476C3.75474 25.6544 3.70419 25.6105 3.70082 25.5632C3.69745 25.5159 3.69408 25.4247 3.68734 25.3335C3.68397 25.2862 3.72104 25.1444 3.75811 24.9586C3.79518 24.8167 3.82888 24.631 3.86258 24.3945C3.95694 23.6447 4.10522 23.0806 4.22654 22.7496L4.6579 20.7264C4.71856 20.213 4.78259 19.7435 4.79944 19.2808C4.81966 18.862 4.88706 18.4398 4.95446 18.0176C5.11622 16.8928 5.187 15.7748 5.21396 14.6602C5.2544 14.5656 5.24766 14.4271 5.27799 14.1907C5.26788 14.0049 5.25103 13.7753 5.23755 13.5422C5.22407 13.3125 5.16678 13.1301 5.05893 12.9038C4.49951 12.1033 3.69071 11.7352 2.67633 11.796C2.53816 11.8061 2.40673 11.9513 2.28204 12.1912C2.12028 12.5728 2.0057 12.9511 1.98211 13.3227C1.84394 14.1198 1.62489 15.0621 1.36877 16.1464C0.923924 17.9838 0.640843 19.3923 0.559963 20.3245L0.354392 21.4965C0.13197 23.182 0.0274999 25.2288 0.03761 27.6877C-0.0264203 28.1572 -0.00957025 29.2212 0.0949003 30.9336C0.152191 31.8591 0.253291 32.7812 0.401572 33.6999C0.485822 34.345 0.708243 34.9327 1.10928 35.4191C1.69903 35.9866 2.50446 36.2635 3.47166 36.2027C3.79181 36.1352 3.96705 35.9866 4.085 35.6556C4.12207 35.5137 4.15577 35.3279 4.14903 35.1861C4.12544 34.8145 3.92324 34.5038 3.58624 34.291L3.53906 34.2944C3.39752 34.2572 3.34697 34.166 3.33686 34.0275C3.22565 32.2239 3.18858 30.8357 3.26272 29.7616L3.3436 29.5724C3.85247 29.542 4.35123 29.4171 4.79944 29.157L6.41031 28.2248L7.62352 27.5932L7.71451 27.5425L7.80887 27.583L7.76843 27.6776L7.8055 28.2788C7.69766 28.7956 7.68418 29.3529 7.71788 29.8629V30.606C7.75158 31.903 7.75832 32.7846 7.78865 33.2912C7.74147 34.0377 7.74484 34.8719 7.8055 35.8413L7.91334 36.8546L7.93019 37.8747C8.06162 40.0465 8.24697 41.5664 8.4458 42.529C8.47276 42.9445 8.64463 43.4917 8.9176 44.1706C8.92097 44.2179 8.92097 44.2178 8.96478 44.2145C9.07262 44.4408 9.17373 44.6198 9.26809 44.6603C9.79381 44.9542 10.451 45.0994 11.2362 45.0487C11.5563 44.9812 11.7316 44.8326 11.7181 44.6029C11.708 44.4644 11.6541 44.3293 11.553 44.1942C11.3002 43.8868 11.0845 42.6473 10.9531 40.4754Z"  />
<path d="M28.5759 24.3366H28.2995C27.8817 24.3366 26.4494 24.6609 24.0028 25.2621C22.9412 25.5391 21.8291 25.8633 20.7675 26.2349L19.1499 26.7449C18.8264 26.8834 18.5029 26.9779 18.1794 27.0691C17.8087 27.2076 17.4413 27.3461 17.0706 27.5792C16.8381 27.7176 16.6089 27.8122 16.4236 27.8561C16.2787 27.9169 16.1001 28.0115 15.9012 28.1297C15.9282 28.0182 15.9518 27.9068 15.9788 27.7953C16.1237 27.086 16.2585 26.4308 16.3865 25.8262C16.5719 25.7316 16.7741 25.6269 17.0235 25.4952L19.1028 24.3839C19.797 23.9685 20.535 23.5969 21.3674 23.2254C22.1526 22.8538 22.7997 22.5769 23.2614 22.3438C23.4467 22.2053 23.9556 21.9723 24.788 21.648C25.5732 21.3238 26.4056 20.9522 27.2818 20.5841C28.1614 20.2598 29.0376 19.9829 29.9171 19.7498C30.1935 19.7025 30.3317 19.5167 30.3317 19.2871L30.2845 19.0101C30.1463 18.5947 29.87 18.2231 29.4993 17.8989C29.2667 17.7131 29.0376 17.6219 28.7612 17.6219C27.7435 17.7131 26.3112 18.0846 24.4645 18.7331L23.9084 18.8716L21.7819 19.5674L21.1349 19.8005C20.7204 19.8917 20.3497 20.0335 19.9318 20.2159C19.952 20.1956 19.9655 20.1788 19.9823 20.1585C19.6622 20.3341 19.3016 20.422 18.9343 20.4726C18.4591 20.6415 17.9839 20.834 17.5087 21.0299C17.5559 20.8779 17.5964 20.753 17.6301 20.6584C17.9772 19.51 18.24 18.5643 18.4085 17.8279L18.4995 17.811C18.914 17.7198 19.3319 17.578 19.7464 17.4395C19.8846 17.3483 20.6698 17.1152 20.8552 17.0241H20.9023C21.0405 16.9329 21.4854 16.8146 21.5696 16.8011C23.3422 16.0006 29.4959 14.4739 29.4959 14.4739C29.7722 14.4739 29.9104 14.3355 29.9104 14.0112V13.8254C29.7722 13.2242 29.4959 12.7142 28.987 12.2954C28.7545 12.1096 28.4781 11.9711 28.1546 11.9238C27.5548 11.9238 26.6752 12.015 25.6136 12.1569C25.3811 12.2042 25.1519 12.2481 24.9194 12.2954L23.6725 12.5284C23.5343 12.5757 23.3962 12.5757 23.258 12.5757C22.52 12.7615 22.0549 12.8527 21.9167 12.8527C21.7314 12.9 21.546 12.9 21.3607 12.9439C21.0371 12.9912 20.2991 13.2208 19.0488 13.5924C18.3546 13.7781 17.7076 14.0551 17.0605 14.3794C16.7033 14.4976 16.3832 14.6935 16.036 15.0042C15.3384 15.0988 14.8734 15.6595 14.6746 16.6525L14.5431 17.0274C14.2129 18.0509 13.9332 19.1317 13.8186 20.2193L13.4917 22.1749C12.8581 25.7012 12.5211 27.819 12.4739 28.6397C12.4369 29.3085 12.4436 30.0786 12.4975 30.9027C12.3459 31.1122 12.2549 31.3114 12.2549 31.4668C12.2549 31.6053 12.3021 31.7911 12.3931 31.9295C12.7166 32.5308 13.1311 32.9496 13.6871 33.1793C13.8725 33.2266 14.0578 33.2705 14.196 33.2705C14.4285 33.2705 14.6105 33.2232 14.7959 33.132L16.5045 32.1119L17.1043 31.6965C17.1953 31.6492 17.2897 31.6053 17.3369 31.558C17.6132 31.3722 17.9839 31.1865 18.4456 30.9568C18.8601 30.7237 19.3252 30.494 19.7869 30.261C20.2014 30.0279 20.6664 29.751 21.172 29.5213C21.6808 29.2882 22.1897 29.1058 22.7424 28.9201C23.1569 28.7816 23.5748 28.5958 23.9455 28.41C24.269 28.2243 24.8689 28.0385 25.6541 27.8088C26.4393 27.4846 27.2717 27.2549 28.0569 27.0691C28.2894 27.0218 28.5186 26.9306 28.7511 26.8834C28.9365 26.8361 29.1218 26.7922 29.3072 26.7922C29.4925 26.7922 29.6307 26.7922 29.7689 26.8395C29.907 26.8867 30.0014 26.9306 30.0452 26.9306C30.2777 26.9306 30.4159 26.7449 30.4159 26.4206C30.3687 26.0964 30.2777 25.8633 30.1396 25.6336C29.8262 24.9378 29.2701 24.5224 28.5759 24.3366Z"  />
<path d="M47.6763 14.4233C49.0613 11.9678 49.7556 10.4411 49.7556 9.83648V9.74529C49.432 8.86373 48.785 8.30979 47.8616 8.12402H47.7706C46.891 8.12402 45.8767 9.14407 44.6736 11.2281C43.4705 13.3121 42.3617 15.6291 41.3474 18.1286C40.3296 20.6314 39.6826 22.3911 39.4534 23.4078C38.8536 21.8338 38.4829 19.8883 38.3447 17.6185C38.2065 15.9973 38.0212 14.653 37.7448 13.6802C37.5595 13.2648 37.2359 12.9405 36.8214 12.7075C36.3597 12.5217 35.8981 12.4305 35.4364 12.4305C34.9747 12.4778 34.6511 12.569 34.4658 12.802C34.2804 13.0351 34.1895 13.4033 34.1895 13.9133C34.1895 14.7003 34.2804 15.7203 34.4658 17.0646L34.604 17.8989C35.6655 23.2254 36.8686 26.0491 38.2537 26.3295C38.3919 26.4207 38.4862 26.5152 38.4862 26.6064L38.439 26.7922C36.7304 31.8418 35.8981 35.4997 35.8981 37.7222C35.8981 38.2322 35.9452 38.695 36.0834 39.0665C36.3159 39.5765 36.6361 39.9481 37.145 40.1777C37.6067 40.4108 38.0245 40.5493 38.3919 40.5493C38.9007 40.5493 39.1299 40.502 39.1299 40.4108C39.1299 40.3196 39.1299 40.2723 39.1299 40.225C39.1299 40.0865 39.0389 39.9481 38.8064 39.8096C38.5738 39.6711 38.4829 39.3941 38.4829 38.8841C38.4829 38.5599 38.53 38.1883 38.621 37.7256C38.8974 35.9186 39.5006 33.6488 40.424 30.9163L40.5622 30.4535C41.6237 27.0725 42.8268 24.0631 44.1681 21.3306C45.4588 18.5913 46.6147 16.3215 47.6763 14.4233Z"  />
<path d="M66.8078 28.7376C66.7606 28.5518 66.7168 28.4133 66.7168 28.3221C66.7168 28.2816 66.181 25.8902 66.2046 25.5187C66.1911 25.4816 65.9788 23.5056 65.9788 23.5056V22.7659C65.8878 22.0262 65.8406 21.2832 65.8406 20.5435L65.8878 17.3921C65.8878 16.8821 65.935 16.3282 65.9788 15.8181L66.2113 11.9744L66.1641 10.4443H66.2551L66.2079 9.88703C66.1608 9.74854 66.117 9.61006 66.0226 9.47158C65.3755 8.73188 64.5432 8.31305 63.5254 8.22185H63.4344C63.0165 8.22185 62.7402 8.40762 62.5548 8.82307C62.3695 9.23852 62.1841 9.65735 62.046 10.0728C61.5371 11.2313 61.2608 11.9271 61.1664 12.248C61.0282 12.5722 60.8901 12.8492 60.7519 13.1735C60.6137 13.4977 60.4755 13.8693 60.334 14.2847C60.1958 14.7002 60.0577 15.119 59.8723 15.5344C59.687 15.9499 59.3634 16.7402 58.9489 17.99L58.7636 18.4527C58.6254 19.1012 58.3491 19.8409 58.0255 20.7225L57.611 22.0668C57.5638 22.2998 57.52 22.4822 57.4729 22.668C57.4729 22.668 56.8123 25.4951 56.3877 27.4575C56.0878 27.2109 55.8249 27.0826 55.6092 27.0826C55.1004 27.0826 54.5477 27.6838 53.8535 28.8423C52.7919 30.6493 51.636 31.5748 50.4329 31.5748C49.5095 31.5748 48.8625 31.2505 48.4446 30.602C48.0301 30.0008 47.7975 29.0754 47.7975 27.8223C47.7975 26.434 48.1211 24.9513 48.7681 23.33C49.6915 21.0602 50.7564 19.0235 51.909 17.2165C53.0649 15.4567 53.8973 14.3894 54.359 14.0652L54.1736 14.7137C53.7591 16.058 53.5266 17.1692 53.5266 18.0035C53.5266 18.3277 53.5737 18.6047 53.6176 18.8378C53.7557 19.2532 54.0793 19.672 54.5881 20.0436C55.0498 20.459 55.6059 20.6921 56.2967 20.7833H56.4349C56.4821 20.7833 56.5259 20.7833 56.5731 20.7833C56.6202 20.7833 56.6641 20.736 56.7112 20.6448C56.7584 20.5975 56.7584 20.5063 56.7584 20.459C56.7584 20.3205 56.7112 20.226 56.6202 20.1348C56.5293 20.0436 56.4349 19.9963 56.3877 19.949C56.1114 19.7632 55.9732 19.439 55.9732 18.9289C55.9732 17.9562 56.5293 16.2876 57.5908 13.9267L57.8671 13.3694C58.0053 12.9978 58.1907 12.6297 58.376 12.2581C58.5614 11.9339 58.7467 11.5623 58.8849 11.1469L59.6229 9.43442C59.9936 8.60015 60.179 8.04622 60.179 7.81316C60.179 7.53619 60.088 7.30314 59.8555 7.11737C59.4409 6.74583 59.0231 6.56006 58.6524 6.56006C57.729 6.56006 56.6641 8.04284 55.5081 10.9611C55.461 11.0084 55.4171 11.0523 55.37 11.0523C55.279 11.0523 55.1374 11.005 54.9555 10.9611C54.4938 10.7281 54.0321 10.5896 53.6142 10.5896C52.3673 10.5896 50.935 11.5623 49.2231 13.5551C47.4201 15.8722 46.126 18.2804 45.3408 20.7799C44.5556 23.3266 44.1377 25.3194 44.1377 26.8022C44.1377 30.1832 45.5228 32.3618 48.2963 33.24C49.0815 33.4257 49.8229 33.5169 50.5138 33.5169C51.299 33.5169 51.9932 33.3785 52.5931 33.1454C53.749 32.6827 54.5814 32.0342 55.1812 31.1999C55.6059 30.6122 55.9092 30.092 56.1046 29.6259C56.199 29.886 56.3911 30.0853 56.6775 30.2102C56.782 30.2744 57.1325 30.4332 57.5066 30.5919C58.0963 30.8452 58.7905 30.6088 59.0804 30.038C59.1713 29.8556 59.2623 29.6664 59.3533 29.4705C59.6263 28.8727 60.698 26.2719 60.698 26.2719C61.345 24.6507 62.5009 20.6211 62.5009 20.4354V20.7596C62.5009 21.1312 62.5481 21.4554 62.5919 21.7797C62.6391 22.1039 62.6829 22.4282 62.7301 22.7524L63.0064 24.5595L63.0536 24.7452C63.1008 25.1607 64.2129 29.0585 64.3005 29.2375C64.624 30.119 65.1801 30.8115 66.0563 31.3215C66.518 31.6457 67.0269 31.7842 67.5795 31.7842H67.7177C67.9941 31.7369 68.1356 31.6457 68.1356 31.5072C68.1356 31.46 68.0884 31.3688 67.9974 31.2303C67.4077 30.4534 67.037 29.6192 66.8078 28.7376Z"  />
<path d="M100.157 17.6761C100.13 17.4971 100.09 17.3451 100.036 17.2066C100.258 16.1157 100.396 15.0213 100.487 13.9303C100.534 13.8358 100.534 13.6939 100.582 13.4575V12.7988C100.582 12.5624 100.534 12.3732 100.44 12.1402C99.9211 11.2924 99.1225 10.8668 98.0879 10.8668C97.9463 10.8668 97.8048 11.0087 97.6632 11.2451C97.4745 11.6234 97.333 11.9983 97.2858 12.3766C97.0971 13.1771 96.8174 14.1195 96.4871 15.2037C96.4163 15.43 96.3523 15.6495 96.2883 15.8623C95.6008 16.0177 94.728 16.2237 93.6495 16.4906L93.7136 16.244C93.8517 15.734 93.9899 15.1801 94.2225 14.6227C94.4078 14.1127 94.546 13.5588 94.6841 13.0015C94.7751 12.6772 94.8695 12.3057 95.0077 11.9814C95.0987 11.6572 95.193 11.2856 95.284 10.8702C95.375 10.4547 95.5132 10.0832 95.6547 9.71167C95.8872 9.15436 96.1164 8.60042 96.2546 7.99921C96.5781 7.11764 96.7634 6.56371 96.7634 6.37794C96.8544 6.14489 96.9016 5.91521 96.9016 5.77672C96.9016 5.2667 96.5781 4.75668 95.9311 4.34123C95.4694 4.06426 95.0077 3.92578 94.5898 3.92578L94.3573 3.97307C94.1719 4.02036 93.9427 4.29732 93.7102 4.80734L92.6015 7.2156L92.3757 7.76953L91.8668 9.15773L90.8962 12.0287C90.8491 12.1672 90.8491 12.2618 90.8053 12.353C90.7581 12.4915 90.5289 13.2345 90.1582 14.67L89.7437 16.0582L89.4674 17.541C89.4438 17.6052 89.4168 17.6964 89.3932 17.7808L88.6889 18.0038C88.3586 18.1456 88.0317 18.2402 87.7015 18.3348C87.5296 18.3989 87.3544 18.4665 87.1825 18.5408C87.2263 18.2807 87.2667 18.0274 87.2937 17.7741C87.3409 17.3586 87.4319 16.9398 87.5262 16.5243C87.7588 15.4131 87.8969 14.3019 87.9879 13.1906C88.0351 13.0994 88.0351 12.9576 88.0789 12.7279V12.0794C88.0789 11.8463 88.0317 11.6639 87.9407 11.4309C87.4319 10.5966 86.6467 10.1812 85.6289 10.1812C85.4907 10.1812 85.3526 10.3196 85.2144 10.5527C85.029 10.9242 84.8909 11.2924 84.8437 11.6639C84.6583 12.4509 84.382 13.3764 84.0585 14.4437C83.5024 16.2508 83.1351 17.639 82.9969 18.5644L82.7206 19.723C82.6397 20.1317 82.5521 20.8038 82.4611 21.6077C82.3566 21.7225 82.2656 21.8306 82.2016 21.9218C81.8713 22.2528 81.6826 22.5804 81.6826 22.8169C81.6826 22.9587 81.7298 23.1479 81.8242 23.2897C81.9455 23.5127 82.0803 23.7018 82.2286 23.8775C82.0365 25.9716 81.8848 28.1907 81.8848 29.1263C81.8848 30.0518 81.932 30.9806 82.023 31.9061C82.0702 32.5546 82.2555 33.1558 82.6228 33.6658C83.1789 34.267 83.9641 34.5913 84.9347 34.5913C85.2582 34.544 85.4436 34.4055 85.5817 34.0813C85.6289 33.9428 85.6727 33.757 85.6727 33.6185C85.6727 33.247 85.4874 32.9228 85.1638 32.6931H85.1167C84.9785 32.6458 84.9313 32.5546 84.9313 32.4161C84.9313 30.6091 84.9785 29.2209 85.1167 28.1535L85.1301 28.1231C85.1537 27.603 85.8075 23.7525 85.8075 23.7525C85.8075 23.7255 85.8277 23.6545 85.8513 23.5667L86.003 23.4755L86.6163 23.0499C86.7107 23.0026 86.805 22.9554 86.8522 22.9081C87.1353 22.7189 87.5094 22.5298 87.9812 22.2967C88.153 22.1988 88.3384 22.1042 88.5238 22.0062C88.18 24.0024 87.57 28.1164 87.57 28.5183C87.57 28.5183 87.2937 33.5206 87.2937 34.4933V36.5301C87.2937 38.7086 87.3847 40.2353 87.5262 41.2081C87.5262 41.6235 87.6644 42.1808 87.8969 42.8766C87.8969 42.9239 87.8969 42.9239 87.9441 42.9239C88.0351 43.157 88.1295 43.3394 88.2205 43.3867C88.7293 43.7109 89.3764 43.8967 90.1616 43.8967C90.4851 43.8494 90.6705 43.7109 90.6705 43.4812C90.6705 43.3427 90.6233 43.2043 90.5323 43.0658C90.2997 42.7415 90.1616 41.4918 90.1616 39.3132C90.1616 38.2493 90.2088 37.2292 90.2526 36.1619L90.2997 35.6519C90.3469 34.8649 90.3907 34.1252 90.4851 33.3821C90.5323 32.9633 90.903 29.9099 90.903 29.9099C90.9502 29.2141 92.5678 20.6923 92.5678 20.6923L92.7262 20.081C93.0227 19.9628 93.3159 19.8378 93.5822 19.7027C93.9124 19.5136 94.5224 19.3244 95.3211 19.0913C95.3716 19.0711 95.4255 19.0576 95.4761 19.0373C95.4525 19.1657 95.4323 19.2839 95.4154 19.3987L95.1323 20.5775C94.8021 22.2731 94.2865 28.4001 94.2865 30.1463C94.2865 31.0887 94.3337 32.0311 94.428 32.9734C94.4752 33.6321 94.6639 34.2468 95.038 34.7636C95.6008 35.3749 96.4029 35.7059 97.3903 35.7059C97.7205 35.6586 97.9093 35.5168 98.0474 35.1891C98.0946 35.0473 98.1418 34.8581 98.1418 34.7197C98.1418 34.3414 97.9531 34.0137 97.6228 33.7773H97.5756C97.4341 33.73 97.3869 33.6354 97.3869 33.4936C97.3869 32.2506 97.4105 31.2069 97.4678 30.322C97.4509 30.2679 98.4687 23.972 98.5159 23.7356C98.6574 22.9824 99.5504 20.0607 99.5504 20.0607C99.6448 19.5406 99.7392 19.0711 99.7863 18.5982C99.8032 18.4597 99.8268 18.3212 99.8504 18.1828C100.039 18.149 100.157 17.9734 100.157 17.6761Z"  />
<path d="M140.806 16.1597C140.705 16.0246 140.543 15.9165 140.412 15.8658C140.19 15.7847 139.819 15.8523 139.398 16.0516C139.239 16.0921 139.04 16.1664 138.808 16.2813L138.781 16.1056C138.727 15.1531 138.481 13.7109 138.087 11.8295C137.857 10.7183 137.662 9.75567 137.547 8.94166C137.534 8.56336 137.429 8.17156 137.274 7.77975C137.156 7.53319 137.028 7.37781 136.887 7.3643C135.856 7.26973 135.023 7.61763 134.43 8.41475C134.316 8.64105 134.252 8.82344 134.228 9.05987L134.167 9.71851C134.194 9.95833 134.181 10.0968 134.218 10.1981C134.208 11.333 134.245 12.4713 134.376 13.6197C134.43 14.052 134.487 14.481 134.494 14.9099C134.498 15.2646 134.899 17.5816 135.134 19.0509C135.101 19.0813 135.074 19.1117 135.037 19.1421C134.69 19.4157 134.427 19.7231 134.167 20.0304C133.968 20.3074 133.766 20.5877 133.524 20.8512L132.479 22.2293C132.021 22.7967 131.582 23.3878 131.154 23.9823C131.138 23.6141 131.114 23.2493 131.077 22.8811C130.976 21.8746 130.861 18.4564 130.73 17.8316L130.568 16.4907C130.48 15.3929 130.403 14.6769 130.298 14.2884L130.157 12.7618L129.864 11.3161C129.621 9.8266 129.456 9.05312 129.422 8.90788C129.385 8.80993 129.392 8.71536 129.358 8.57012L128.64 5.57078L128.256 4.11502L128.074 3.53069L127.174 0.987335C126.986 0.450292 126.78 0.146305 126.595 0.0821299L126.372 0.007822C125.951 -0.0293319 125.469 0.0652417 124.977 0.305054C124.283 0.66646 123.909 1.15284 123.862 1.66962C123.848 1.81148 123.875 2.04791 123.946 2.2911C123.929 2.48025 124.064 3.05782 124.31 3.97992C124.394 4.6014 124.576 5.18911 124.758 5.77344C124.866 6.16187 124.97 6.55029 125.024 6.98263C125.078 7.41497 125.139 7.79664 125.203 8.1344C125.314 8.47554 125.372 8.86059 125.436 9.19836C125.523 9.77593 125.614 10.3501 125.752 10.8838C125.934 11.4681 126.025 12.0457 126.116 12.5726L126.875 17.1865L127.205 19.7737C127.212 20.1993 127.269 20.6316 127.323 21.064C127.437 21.878 127.522 22.5028 127.522 23.023C127.522 23.5432 127.569 24.0701 127.613 24.5936C127.69 25.3097 127.72 25.9751 127.704 26.6844L127.778 27.9206C127.774 29.0082 127.795 29.8154 127.801 30.241C127.825 31.001 127.805 31.7576 127.778 32.5581V33.0782C127.724 34.1624 127.677 35.1994 127.579 36.2768C127.377 38.4824 127.121 39.7355 126.858 40.0429C126.75 40.1746 126.693 40.3131 126.679 40.4516C126.659 40.6846 126.831 40.8434 127.154 40.9211C127.95 40.9954 128.624 40.867 129.17 40.5867C129.267 40.5495 129.378 40.3705 129.493 40.1442C129.54 40.1476 129.54 40.1476 129.544 40.1003C129.844 39.418 130.036 38.8675 130.073 38.4453C130.305 37.4725 130.541 35.9323 130.74 33.7267L130.787 32.6898L130.929 31.663C131.016 30.7071 131.047 29.8796 131.026 29.1365C131.411 28.5657 131.825 27.9915 132.3 27.468C132.792 26.7924 133.176 26.2824 133.463 26.0359C133.766 25.7454 134.086 25.411 134.363 25.0563C134.73 24.5868 135.081 24.1646 135.478 23.756C135.515 23.7188 135.552 23.6884 135.586 23.6546C135.744 24.651 135.903 25.6474 135.785 26.6303C135.778 26.6945 135.755 26.7418 135.731 26.7924C135.707 27.6774 135.633 28.7211 135.522 29.9573C135.509 30.0991 135.455 30.187 135.31 30.2207L135.263 30.2174C134.912 30.4234 134.696 30.7341 134.663 31.1091C134.649 31.2509 134.68 31.4434 134.713 31.5853C134.824 31.9264 134.996 32.0852 135.32 32.1629C136.304 32.2541 137.13 31.9974 137.746 31.4401C138.167 30.9571 138.41 30.366 138.518 29.7141C138.697 28.7852 138.831 27.8496 138.916 26.9107C139.074 25.1746 139.128 24.0903 139.074 23.6141C139.114 22.4893 139.125 21.4524 139.111 20.4932L139.559 20.1723L141.123 18.882C141.275 18.7368 141.382 18.5747 141.463 18.3517C141.511 18.22 141.531 18.0241 141.551 17.8316C141.524 17.2202 141.271 16.6764 140.806 16.1597Z"  />
<path d="M130.767 3.58129C131.246 3.76031 131.66 3.8819 132.004 3.9427C132.614 4.05078 133.349 4.13185 134.211 4.1386C135.34 4.19264 136.739 4.29397 138.437 4.49663C138.667 4.53716 138.859 4.57094 139 4.64525C139.145 4.71955 139.253 4.78373 139.32 4.84453C139.351 4.89857 139.418 4.95599 139.459 4.96274C139.536 4.97625 139.62 4.94248 139.721 4.8175C139.816 4.73644 139.876 4.60471 139.9 4.46623C139.941 4.23317 139.914 3.9427 139.809 3.63533C139.637 3.03074 139.331 2.54774 138.892 2.13567C138.195 1.62902 136.739 1.18317 134.525 0.794745C132.998 0.527912 131.529 0.605598 130.157 1.03456C129.868 1.12575 129.726 1.24735 129.686 1.47703C129.669 1.56822 129.692 1.66955 129.706 1.81479C129.911 2.85848 130.279 3.44956 130.767 3.58129Z"  />
<path d="M125.517 14.5179C125.511 14.3963 125.511 14.2748 125.504 14.1498C125.494 13.8424 125.46 13.5857 125.393 13.3493C125.346 13.0588 125.315 12.8021 125.335 12.569L125.319 12.5319C125.339 12.3867 125.309 12.2245 125.221 12.0388C125.133 11.8564 125.029 11.6368 124.961 11.397C124.948 11.3497 124.934 11.3058 124.921 11.2585C124.877 11.0761 124.84 10.8904 124.793 10.708C124.648 10.0628 124.368 9.48527 123.917 9.03267C123.438 8.651 122.852 8.44159 122.191 8.41794C120.739 7.8505 119.462 7.8201 118.333 8.35715C117.638 8.68815 117.012 9.1644 116.402 9.85681C115.977 10.2824 115.606 10.7282 115.286 11.2822L115.006 11.728C114.838 12.032 114.669 12.336 114.535 12.6231L114.113 13.7208C113.608 15.3961 113.645 16.9937 114.245 18.5475L114.4 18.8785C114.626 19.3547 114.905 19.76 115.259 20.1316C116.371 21.2496 117.675 21.8812 119.138 22.0332L117.059 25.1034L115.165 27.9643C115.003 28.2007 114.865 28.5013 114.683 28.7783C114.481 29.0992 114.282 29.4234 114.059 29.7882L112.391 32.4937C111.427 34.1251 110.828 35.1958 110.592 35.7092L109.897 37.2055L109.523 38.1242C108.671 39.9616 108.597 41.6944 109.234 43.3426C109.399 43.9911 109.773 44.5282 110.248 44.9571L110.568 45.1598C110.78 45.2578 110.925 45.1699 111.026 44.9571C111.067 44.8727 111.04 44.7038 110.949 44.4539C110.696 43.6601 110.693 42.8799 110.986 42.1334C111.178 41.4951 111.411 40.877 111.711 40.2352L112.169 39.357C112.29 39.205 112.371 39.0362 112.469 38.82C112.627 38.4789 112.829 38.1546 113.008 37.8776C113.19 37.5973 113.372 37.3203 113.551 37.04C113.989 36.2057 114.393 35.5606 114.696 35.1316C114.838 34.9391 115.02 34.6588 115.198 34.3784C115.38 34.0981 116.065 33.0679 117.298 31.3014C117.723 30.7204 118.127 30.18 118.491 29.6227C118.835 29.1059 119.175 28.5892 119.542 28.1365C120.109 27.3597 120.432 26.8868 120.53 26.674C120.712 26.3937 120.894 26.1167 121.14 25.9174C121.322 25.7249 121.494 25.5054 121.669 25.2723C121.669 25.4311 121.666 25.5898 121.676 25.7418C121.692 26.1674 121.666 26.6031 121.635 27.0354C121.575 28.1906 121.608 29.3289 121.686 30.4604C121.652 30.5617 121.676 30.7002 121.666 30.94L121.767 31.5919C121.804 31.8249 121.878 32.0039 122.006 32.2235C122.646 32.9834 123.502 33.2807 124.523 33.1219C124.661 33.1017 124.779 32.9395 124.884 32.6862C125.012 32.2843 125.096 31.8891 125.083 31.5108C125.147 30.69 125.282 29.7139 125.443 28.5925C125.723 26.6909 125.878 25.2352 125.875 24.2827L125.976 23.0735C126.043 21.3475 125.959 19.2601 125.72 16.7708C125.747 16.3925 125.676 15.6461 125.517 14.5179ZM117.483 19.6182C117.311 19.2534 117.194 18.7231 117.173 18.0172C117.136 17.2741 117.22 16.6019 117.416 15.9737C117.696 14.7645 118.319 13.5283 119.249 12.2786C119.772 11.5828 120.324 11.0491 120.894 10.735C121.059 10.61 121.224 10.4884 121.389 10.3635L121.423 10.3466C121.457 10.3668 121.484 10.3905 121.517 10.4074L121.564 10.4006C121.709 10.4243 121.773 10.5121 121.794 10.6506C121.982 11.88 122.12 12.9136 122.198 13.7985C122.222 13.8492 122.249 13.8965 122.262 13.9573C122.336 14.3693 122.36 14.7848 122.36 15.2036C122.36 15.2272 122.36 15.2475 122.36 15.2712C122.35 16.0041 122.262 16.7438 122.195 17.4869C122.158 17.7706 122.12 18.0509 122.073 18.3414L122.009 18.7738C121.959 19.4256 121.858 19.8782 121.672 20.1451L121.581 20.2329L121.416 20.2667L120.746 20.27C118.804 20.3376 117.706 20.0944 117.483 19.6182Z"  />
<path d="M110.954 27.1265C111.174 27.0826 111.291 26.9812 111.298 26.8698L111.308 26.7043C111.318 26.5421 111.271 26.3733 111.113 26.255C110.958 26.1368 110.853 25.9646 110.87 25.691C110.83 25.4714 110.84 25.2519 110.857 24.9783C110.904 24.1035 111.062 23.2354 111.275 22.3708C111.699 20.2834 112.056 18.6452 112.34 17.4462C112.852 17.0611 113.169 16.4565 113.169 15.7979V14.4367C113.627 12.8627 113.893 11.7312 113.927 11.1199C113.954 10.6267 113.752 10.2856 113.334 9.99175C112.855 9.74518 112.316 9.60332 111.662 9.56617C110.789 9.51888 110.213 10.0863 109.984 11.2246L109.852 11.5995C109.522 12.6229 109.243 13.7038 109.128 14.7914L108.976 15.6966L107.79 16.085L107.143 16.3181C106.728 16.4092 106.358 16.5511 105.94 16.7335C105.96 16.7132 105.974 16.6963 105.99 16.6761C105.768 16.7977 105.525 16.8686 105.276 16.9226C105.482 16.0782 105.64 15.5108 105.744 15.2271C106.348 13.2309 106.702 11.8258 106.739 11.1165C106.766 10.6234 106.563 10.2822 106.145 9.98837C105.667 9.7418 105.128 9.59994 104.474 9.56279C103.601 9.5155 103.025 10.0829 102.796 11.2212L102.664 11.5961C102.334 12.6195 102.054 13.7004 101.94 14.788L101.613 16.7436C101.471 17.5272 101.35 18.2298 101.235 18.8749C100.71 19.1924 100.272 19.618 99.9311 20.1111C99.8402 20.2969 99.793 20.4827 99.793 20.6212C99.793 20.7596 99.793 20.8542 99.8401 20.9454C100.025 21.4689 100.322 21.8607 100.71 22.1647C100.649 22.6173 100.609 22.9754 100.595 23.2084C100.555 23.9177 100.565 24.7385 100.625 25.62C100.7 26.228 101.006 26.6266 101.599 26.8259C102.186 27.0758 102.617 27.2109 102.998 27.2312C103.271 27.2481 103.49 27.2042 103.77 27.113C103.989 27.0691 104.107 26.9677 104.113 26.8563L104.123 26.6908C104.134 26.5286 104.086 26.3598 103.928 26.2415C103.773 26.1233 103.672 25.9511 103.685 25.6775C103.645 25.4579 103.655 25.2384 103.672 24.9648C103.719 24.09 103.877 23.2219 104.09 22.3573C104.164 21.9992 104.235 21.6547 104.302 21.3237L105.107 20.8914C105.802 20.4759 106.54 20.1044 107.372 19.7328C107.729 19.564 108.056 19.4153 108.349 19.2802C108.002 21.3034 107.814 22.6038 107.78 23.2017C107.739 23.911 107.75 24.7317 107.81 25.6133C107.884 26.2213 108.191 26.6198 108.784 26.8191C109.371 27.0691 109.802 27.2042 110.183 27.2244C110.456 27.2616 110.678 27.2177 110.954 27.1265Z"  />
<path d="M81.6765 18.2743C81.6765 17.663 81.5822 17.0955 81.3935 16.5315C80.6419 14.4103 79.2299 12.9039 77.2079 12.0527C76.3148 11.6271 75.7487 11.3468 75.4218 11.2049C75.0915 11.1104 74.8118 10.9685 74.6703 10.7321C74.2928 10.1646 73.8716 9.88428 73.3526 9.88428C73.211 9.88428 73.0223 9.93156 72.7898 9.97885C72.5067 10.0734 72.227 10.1207 71.9439 10.1207H71.6137C71.3306 10.1207 71.1452 10.168 71.0509 10.3099C70.9093 10.4517 70.8621 10.5463 70.8621 10.6882C70.8621 10.83 70.9093 10.9246 70.9565 11.0664C71.0037 11.2083 71.0037 11.3029 71.0037 11.3975C71.0037 11.5866 70.9565 11.7758 70.815 11.9176C69.7332 13.2856 68.6986 15.2176 67.664 17.7136C67.5225 18.0446 67.4281 18.325 67.3809 18.6087C67.2866 18.9397 67.1922 19.2201 67.0507 19.4565V19.5038C66.9563 19.6456 66.9091 19.8348 66.9091 20.0678C66.9091 20.3043 66.9091 20.5846 66.8619 20.8683C66.8148 21.1521 66.7676 21.4324 66.7676 21.6688C66.7676 21.9998 66.7676 22.1856 66.8148 22.3275C66.8619 23.2225 67.2832 24.1649 68.0381 25.1073C69.3557 26.6171 70.7644 27.3703 72.318 27.3703C73.2111 27.3703 74.1041 27.1811 75.0915 26.7589C75.7487 26.5225 76.362 26.2422 76.972 25.8166L77.491 25.4856C77.8212 25.2491 78.1481 25.0127 78.4312 24.7796L79.4186 23.8373C80.7835 22.3275 81.535 20.6319 81.6765 18.6999V18.2743ZM78.3402 17.8048C78.01 18.6053 77.5887 19.2673 77.0697 19.8314C76.1767 20.9629 74.9062 21.9526 73.3088 22.8003C72.4157 23.2698 71.5699 23.5536 70.815 23.6008C70.5791 23.6481 70.3432 23.6954 70.1106 23.7427H69.9219C69.8276 23.7427 69.7804 23.6481 69.7804 23.4117C69.8276 22.6585 69.9691 22.0438 70.1106 21.527C70.2522 21.0068 70.4409 20.5373 70.5791 20.0172C70.6734 19.7807 70.815 19.5443 70.9565 19.3112L71.0037 19.1221C71.1452 18.8857 71.3339 18.558 71.4721 18.227C71.6103 17.896 71.7552 17.6157 71.9406 17.2847L72.1765 16.8625C72.5539 16.2511 72.928 15.6364 73.3526 15.025L73.6357 14.5995C74.0131 13.9408 74.34 13.5152 74.6703 13.3261L74.8118 13.2788L75.0005 13.3261L75.7049 13.6571C77.7741 14.5522 78.8087 15.3527 78.8087 15.9674C78.8087 16.4369 78.6705 17.0516 78.3402 17.8048Z"  />
<path d="M74.8118 15.3998L74.623 15.3525C74.5759 15.3525 74.4815 15.3525 74.4343 15.3525C74.3871 15.3998 74.34 15.3998 74.2928 15.4471C73.7772 15.6835 73.4469 16.0112 73.211 16.4368V16.5313L72.9279 17.0515C72.5505 17.7101 72.3179 18.3721 72.1764 18.9835C72.1292 19.1254 72.082 19.3618 72.082 19.7367C72.082 20.1623 72.1764 20.4899 72.4123 20.8209C72.6482 21.1519 72.9279 21.3884 73.3525 21.5268H73.4941C73.6356 21.5268 73.73 21.4323 73.73 21.2904V21.0101C73.73 20.8209 73.9187 20.446 74.249 19.8786C74.4849 19.453 74.8623 18.9835 75.3779 18.3688C75.6138 18.0378 75.8025 17.7101 75.8935 17.3791C75.8935 17.3318 75.8935 17.2845 75.9407 17.2373C75.9879 17.19 75.9879 17.0954 75.9879 17.0008L75.9407 16.6225C75.7048 16.1057 75.3307 15.6835 74.8118 15.3998Z"  />
</svg>
