<svg xmlns="http://www.w3.org/2000/svg" fill="#16B5C7" viewBox="0 0 483 483">
  <defs/>
  <path d="M424 58H59C27 58 0 84 0 117v249c0 33 27 60 59 60h365c33 0 59-27 59-60V117c0-33-26-59-59-59zm32 308c0 18-14 33-32 33H59c-18 0-32-15-32-33V117c0-18 14-32 32-32h365c18 0 32 14 32 32v249z"/>
  <path d="M305 239l118-106c6-5 6-14 1-20-5-5-13-6-19-1L242 259l-32-29-2-2L78 112c-5-5-14-4-19 1-5 6-4 15 1 20l120 106L61 351a14 14 0 0018 20l121-113 33 29a13 13 0 0018 0l34-30 120 114c2 2 6 4 9 4a13 13 0 0010-24L305 239z"/>
</svg>
